<svg xmlns="http://www.w3.org/2000/svg" width="760" height="507" viewBox="0 0 760 507">
  <g id="strimzi">
    <defs>
      <style>
        @import url("./rh-font/red-hat-font.css");
      </style>
      <style>.a,.b{fill:#e8e8e8;}.b{font-size:10px;}.b,.l{font-family:RedHatText-Regular, 'RedHatText', sans-serif;}.c,.i{fill:none;}.d{font-size:16px;}.d,.g,.h,.j,.l{fill:#151515;}.d,.g{font-family:RedHatText-Bold, 'RedHatText', sans-serif;font-weight:700;}.e,.m{fill:#fff;}.f{fill:#06c;}.g,.h,.m{font-size:12px;}.h,.m{font-family:RedHatText-Medium, 'RedHatText', sans-serif;font-weight:500;}.i{stroke:#151515;stroke-miterlimit:10;}.k{fill:#f6f6f6;}.l{font-size:11px;}</style>
    </defs>
    <title>strimzi</title>
    <rect class="a" y="20.269" width="385" height="470"/><text class="b" transform="translate(721.381 490.017)">39_0819</text><rect class="c" y="467" width="760" height="40"/><text class="d" transform="translate(30 463.952)">Kubernetes</text><rect class="e" x="30.5" y="313.5" width="324" height="103"/><path class="f" d="M354,314V416H31V314H354m1-1H30V417H355V313Z"/><rect class="a" x="46" y="328" width="144" height="50"/><text class="g" transform="translate(44.5 403.34)">Internal Clients</text><text class="h" transform="translate(89.02 356.324)">Producers</text><rect class="a" x="195" y="328" width="144" height="50"/><text class="h" transform="translate(235.291 356.324)">Consumers</text><rect class="e" x="435.5" y="313.5" width="324" height="103"/><path class="f" d="M759,314V416H436V314H759m1-1H435V417H760V313Z"/><text class="g" transform="translate(449.5 403.34)">External Clients</text><line class="i" x1="190" y1="180.176" x2="190" y2="206.824"/><polygon class="j" points="185.014 181.635 190 173 194.986 181.635 185.014 181.635"/><polygon class="j" points="185.014 205.365 190 214 194.986 205.365 185.014 205.365"/><line class="i" x1="118" y1="276.426" x2="118" y2="328"/><polygon class="j" points="113.014 277.885 118 269.25 122.986 277.885 113.014 277.885"/><rect class="e" x="30" y="50" width="325" height="120"/><rect class="k" x="65" y="108" width="277" height="48"/><path class="e" d="M341,109v46H66V109H341m2-2H64v50H343V107Z"/><rect class="k" x="55" y="98" width="277" height="48"/><path class="e" d="M331,99v46H56V99H331m2-2H54v50H333V97Z"/><rect class="a" x="45" y="88" width="277" height="48"/><path class="e" d="M321,89v46H46V89H321m2-2H44v50H323V87Z"/><text class="g" transform="translate(44.5 77.343)">Apache Kafka</text><text class="h" transform="translate(161.462 115.324)">Brokers</text><text class="l" transform="translate(123.014 296.125)">HTTP</text><line class="i" x1="267" y1="266.5" x2="267" y2="318.074"/><polygon class="j" points="262.014 316.615 267 325.25 271.986 316.615 262.014 316.615"/><text class="l" transform="translate(272.014 296.125)">HTTP</text><polyline class="i" points="522.993 328 522.993 246.5 364.676 246.5"/><polygon class="j" points="366.135 241.514 357.5 246.5 366.135 251.486 366.135 241.514"/><text class="l" transform="translate(528.007 296.125)">HTTP</text><polyline class="i" points="671.993 318.074 671.993 236.5 355 236.5"/><polygon class="j" points="676.979 316.615 671.993 325.25 667.007 316.615 676.979 316.615"/><text class="l" transform="translate(677.007 296.125)">HTTP</text><rect class="a" x="451" y="328" width="144" height="50"/><text class="h" transform="translate(494.02 356.324)">Producers</text><rect class="a" x="600" y="328" width="144" height="50"/><text class="h" transform="translate(640.291 356.324)">Consumers</text><rect class="f" x="30" y="216.5" width="325" height="50"/><text class="m" transform="translate(135.347 244.722)">Strimzi Kafka Bridge</text>
  </g>
</svg>
